<?xml version="1.0" standalone="no"?>
<!DOCTYPE svg PUBLIC "-//W3C//DTD SVG 20010904//EN"
 "http://www.w3.org/TR/2001/REC-SVG-20010904/DTD/svg10.dtd">
<svg version="1.0" xmlns="http://www.w3.org/2000/svg"
 width="671.000000pt" height="671.000000pt" viewBox="0 0 671.000000 671.000000"
 preserveAspectRatio="xMidYMid meet">

<g transform="translate(0.000000,671.000000) scale(0.100000,-0.100000)"
fill="#000000" stroke="none">
<path d="M0 6530 c0 -99 2 -180 5 -180 3 0 17 12 30 28 13 15 26 24 30 20 4
-3 -10 -24 -30 -46 l-36 -40 1 -347 c1 -250 4 -345 12 -337 6 6 10 36 9 67 -1
43 2 55 13 55 9 0 20 17 27 40 9 30 17 40 33 40 16 0 18 -3 7 -9 -8 -5 -9 -11
-3 -15 11 -7 24 18 15 28 -4 3 -14 6 -23 6 -10 0 -23 7 -30 15 -11 13 -8 15
18 15 42 0 87 -21 70 -32 -9 -5 -8 -8 5 -8 25 0 18 34 -8 38 -37 7 -48 23 -25
39 11 8 20 21 20 29 0 8 5 14 10 14 6 0 10 6 10 13 0 7 9 13 20 13 13 0 19 -5
15 -14 -3 -7 -5 -18 -5 -23 0 -6 -5 -7 -12 -3 -7 4 -8 3 -4 -5 4 -6 2 -19 -5
-27 -6 -8 -10 -17 -7 -19 3 -3 13 12 24 32 10 21 24 41 29 46 13 9 -13 27 -31
20 -6 -2 -15 0 -18 5 -3 6 1 13 10 16 10 4 13 13 9 26 -5 14 -2 20 10 20 27 0
49 30 49 67 0 31 3 34 23 30 12 -2 20 0 17 4 -2 5 1 17 8 29 10 16 10 24 0 40
-10 16 -10 20 1 20 7 0 19 -6 26 -12 11 -11 13 -10 7 5 -3 10 -6 23 -6 28 0 5
-5 8 -11 7 -6 -2 -14 3 -16 10 -4 11 -1 12 17 2 18 -10 24 -9 35 7 8 10 12 26
9 36 -7 23 5 21 34 -5 14 -13 22 -18 19 -12 -11 20 16 64 36 58 9 -3 17 0 17
7 0 7 -10 10 -27 6 -16 -2 -37 -1 -48 3 -15 6 -7 9 28 9 54 1 97 33 97 72 0
18 4 20 25 15 18 -5 25 -2 25 8 0 8 6 17 13 19 7 3 6 6 -5 6 -31 2 -29 20 4
29 22 6 32 14 30 25 -1 8 2 18 8 22 5 3 10 15 10 26 0 17 7 19 60 19 33 0 60
4 60 9 0 5 -14 8 -31 7 -18 0 -34 5 -36 12 -3 8 10 12 47 12 31 0 49 4 45 10
-3 6 -16 11 -28 11 -17 1 -15 3 8 9 17 4 -46 8 -152 9 l-181 1 -27 -31 c-14
-17 -29 -29 -32 -25 -3 3 4 14 15 25 31 26 28 31 -24 31 -41 0 -51 -5 -80 -36
-19 -20 -32 -40 -29 -45 4 -5 -1 -6 -9 -3 -22 8 -20 19 7 41 51 41 46 43 -97
43 l-136 0 0 -180z m320 95 c0 -11 -75 -75 -87 -75 -7 0 4 18 24 40 33 35 63
51 63 35z m-130 -19 c0 -3 -4 -8 -10 -11 -5 -3 -10 -1 -10 4 0 6 5 11 10 11 6
0 10 -2 10 -4z m-41 -143 c-29 -38 -69 -73 -69 -61 0 7 16 28 35 46 39 35 55
42 34 15z"/>
<path d="M6383 6677 c50 -36 117 -94 117 -101 0 -3 11 -17 25 -32 14 -15 25
-31 25 -37 0 -5 9 -19 20 -31 67 -72 89 -98 92 -108 3 -7 10 -4 21 6 13 14 16
30 12 83 -4 47 -1 69 7 76 10 7 10 10 1 14 -15 6 -17 49 -3 58 6 3 10 28 10
56 l0 49 -87 -2 c-83 -1 -85 -2 -29 -7 34 -4 61 -11 64 -18 2 -7 -1 -13 -6
-13 -5 0 -12 -8 -15 -19 -3 -14 0 -17 13 -14 13 4 19 -3 22 -26 3 -17 0 -35
-6 -40 -14 -11 -105 -21 -110 -12 -2 3 2 23 9 44 7 20 9 37 4 37 -5 0 -9 -4
-9 -9 0 -5 -9 -11 -20 -14 -13 -3 -20 0 -20 9 0 7 -12 17 -27 20 -16 4 -41 16
-56 27 -22 15 -26 22 -15 28 7 5 8 9 3 9 -6 0 -17 -6 -24 -12 -8 -7 -11 -8 -8
-2 4 7 -5 11 -24 12 l-31 1 45 -32z m287 -176 c0 -5 -8 -11 -19 -14 -13 -3
-18 -12 -16 -28 1 -13 0 -16 -2 -6 -2 9 -9 17 -14 17 -5 0 -4 9 3 20 13 20 48
28 48 11z"/>
<path d="M6260 6680 c0 -5 5 -10 11 -10 5 0 7 5 4 10 -3 6 -8 10 -11 10 -2 0
-4 -4 -4 -10z"/>
<path d="M6587 6684 c-13 -13 -7 -24 14 -24 11 0 19 5 17 12 -5 14 -22 21 -31
12z"/>
<path d="M6290 6655 c0 -8 7 -15 16 -15 14 0 14 3 4 15 -7 8 -14 15 -16 15 -2
0 -4 -7 -4 -15z"/>
<path d="M650 6605 c-7 -9 -10 -18 -7 -21 10 -11 37 5 37 21 0 19 -14 19 -30
0z"/>
<path d="M6625 6609 c-4 -6 -5 -13 -2 -16 7 -7 27 6 27 18 0 12 -17 12 -25 -2z"/>
<path d="M6195 6540 c3 -5 8 -10 11 -10 2 0 4 5 4 10 0 6 -5 10 -11 10 -5 0
-7 -4 -4 -10z"/>
<path d="M2105 6529 l-620 -5 -100 -26 c-312 -82 -528 -201 -717 -394 -99
-102 -143 -159 -210 -269 -97 -161 -160 -331 -201 -545 l-21 -115 -1 -1830 0
-1830 23 -109 c26 -118 85 -299 133 -404 80 -177 316 -452 478 -556 150 -98
327 -167 542 -213 l124 -27 1780 -3 c1988 -4 1854 -9 2105 67 204 62 325 126
500 265 223 177 404 462 485 760 59 218 56 107 56 2079 l-1 1808 -25 124 c-47
233 -109 395 -210 551 -189 292 -454 498 -775 602 -231 76 -154 72 -1510 74
-668 1 -1494 -1 -1835 -4z m1369 -343 c73 -36 122 -93 137 -163 11 -48 21 -62
103 -142 94 -90 240 -224 378 -344 43 -38 78 -72 78 -75 -1 -4 -18 -25 -40
-46 l-39 -40 -58 54 c-32 30 -119 112 -193 182 -74 69 -153 141 -175 158 l-40
31 -18 -23 c-75 -96 -165 -148 -257 -148 -109 0 -177 38 -237 131 -21 32 -40
59 -43 59 -4 0 -106 -100 -227 -223 l-221 -222 -41 37 -40 38 258 258 c244
244 259 261 274 313 21 70 52 116 102 151 56 39 90 48 172 44 53 -2 86 -10
127 -30z m-1699 -39 c60 -30 105 -76 137 -137 19 -37 23 -61 24 -139 l1 -95
129 -123 c71 -68 150 -140 177 -160 26 -20 47 -42 47 -48 0 -5 -17 -27 -36
-49 l-36 -38 -42 38 c-22 22 -98 94 -167 161 -69 68 -131 123 -137 123 -7 0
-32 -15 -56 -34 -62 -47 -135 -70 -194 -61 -149 22 -257 139 -270 290 -4 52 0
71 23 122 34 78 98 140 167 165 73 26 166 20 233 -15z m721 17 c43 -21 84 -88
84 -138 0 -62 -34 -114 -92 -141 -47 -22 -49 -24 -29 -34 20 -11 21 -19 21
-201 0 -211 5 -198 -69 -184 l-31 7 0 171 c0 118 4 179 13 196 12 24 10 26
-28 51 -54 34 -79 86 -73 151 6 57 29 93 78 119 43 23 81 24 126 3z m2668 -4
c63 -24 125 -80 158 -142 32 -62 33 -205 1 -265 -31 -57 -86 -108 -152 -140
-95 -47 -209 -32 -304 41 -19 14 -39 26 -45 26 -6 0 -82 -71 -169 -159 l-158
-159 -43 38 -43 38 149 146 c82 80 165 159 185 174 27 20 36 32 32 47 -28 106
-2 225 62 286 90 86 211 112 327 69z m-825 -8 c50 -27 73 -75 68 -139 -4 -61
-24 -88 -82 -114 -94 -41 -215 31 -215 129 0 48 33 106 72 125 44 22 115 21
157 -1z m1446 -215 c33 -48 2 -117 -52 -117 -30 0 -73 42 -73 70 0 70 87 102
125 47z m-4763 6 c37 -42 31 -88 -15 -118 -30 -19 -65 -9 -82 26 -19 36 -19
59 1 87 19 27 74 30 96 5z m3296 -90 c5 -10 12 -102 15 -205 l7 -188 -55 0
-55 0 0 193 c0 137 3 196 12 205 18 18 66 15 76 -5z m1333 -229 c31 -15 68
-80 69 -118 0 -31 -47 -103 -72 -110 -13 -3 -38 -6 -55 -6 -27 0 -39 -9 -74
-52 -23 -29 -45 -54 -49 -56 -14 -5 -70 50 -70 70 0 12 21 40 50 66 48 44 50
48 45 86 -7 51 21 101 68 121 41 18 52 18 88 -1z m-4474 -14 c44 -27 55 -51
47 -109 -6 -48 -6 -49 43 -100 l50 -52 -36 -35 -36 -35 -20 24 c-11 13 -28 38
-37 56 -16 29 -21 31 -72 31 -51 0 -57 2 -82 36 -21 27 -28 47 -28 86 -1 45 2
53 36 84 44 40 86 44 135 14z m1867 -251 c24 -27 27 -38 23 -73 -10 -72 -91
-125 -142 -92 -58 38 -76 109 -39 158 42 58 109 60 158 7z m751 -1 c24 -22 38
-45 42 -70 5 -33 2 -41 -30 -73 -56 -56 -116 -44 -151 29 -23 49 -20 71 15
111 41 46 77 47 124 3z m-1299 -41 c26 -24 37 -43 41 -74 5 -40 3 -46 -35 -83
-44 -44 -73 -50 -122 -25 -59 30 -79 119 -39 169 44 55 104 60 155 13z m1838
19 c45 -19 66 -52 66 -103 0 -85 -85 -136 -164 -98 -77 37 -89 137 -22 185 45
33 71 37 120 16z m-3515 -46 c8 0 36 -22 61 -50 44 -48 47 -49 80 -40 19 6 83
10 142 10 l108 0 0 -47 c0 -76 -2 -77 -126 -69 -60 3 -122 8 -139 11 -26 5
-33 1 -54 -33 -28 -48 -68 -72 -116 -72 -92 0 -173 98 -151 185 15 58 109 122
161 110 11 -3 26 -5 34 -5z m5168 -10 c55 -24 83 -70 83 -133 0 -85 -51 -147
-121 -147 -58 0 -86 15 -121 65 l-32 45 -72 -6 c-40 -4 -101 -3 -137 0 l-65 7
-10 52 c-6 29 -9 52 -9 53 1 0 67 -2 147 -6 l145 -6 30 33 c31 34 79 63 105
63 8 0 34 -9 57 -20z m-3787 -54 l0 -54 -62 -6 c-35 -3 -83 -4 -108 -2 -25 2
-124 4 -221 5 l-177 1 -17 43 c-9 23 -19 48 -22 55 -4 9 60 12 301 12 l306 0
0 -54z m1230 50 c0 -3 -4 -8 -10 -11 -5 -3 -10 -1 -10 4 0 6 5 11 10 11 6 0
10 -2 10 -4z m1700 -3 c0 -5 -13 -30 -28 -58 l-27 -50 -278 -3 -277 -2 0 60 0
60 305 0 c168 0 305 -3 305 -7z m-1688 -25 c-17 -17 -15 -28 5 -28 14 0 15 -2
1 -17 -21 -25 -29 -51 -16 -55 6 -2 3 -9 -6 -17 -15 -12 -16 -8 -15 52 2 65 2
66 39 76 2 0 -1 -4 -8 -11z m72 -9 c-10 -18 -13 -89 -3 -89 5 0 9 5 9 12 0 6
3 8 6 5 10 -10 -17 -38 -29 -30 -5 3 -7 2 -4 -3 3 -6 -16 -34 -43 -64 l-49
-55 -1 36 c0 30 8 45 45 82 25 26 45 49 45 54 0 4 -5 2 -12 -5 -14 -14 -28
-16 -28 -4 0 9 56 72 65 72 3 0 3 -5 -1 -11z m-2042 -26 c54 -57 55 -95 5
-150 -25 -28 -82 -30 -113 -5 -52 41 -54 100 -6 144 49 46 78 48 114 11z
m1718 -5 c0 -5 -7 -8 -15 -8 -15 0 -20 21 -8 33 7 7 23 -11 23 -25z m2158 12
c38 -36 53 -75 41 -107 -31 -84 -114 -110 -163 -52 -15 18 -26 43 -26 60 0 40
24 94 47 108 29 17 77 13 101 -9z m-1814 -1 c-3 -6 0 -15 7 -20 7 -4 10 -12 5
-16 -4 -4 -14 1 -21 11 -15 19 -12 36 6 36 6 0 7 -5 3 -11z m-269 -35 c-17
-17 -12 -34 11 -34 8 0 14 -8 14 -17 0 -10 3 -35 6 -55 9 -51 -13 -51 -55 -1
-30 35 -31 38 -12 44 28 11 39 33 12 24 -13 -4 -21 -2 -21 5 0 6 4 9 9 6 5 -3
14 8 21 24 7 16 16 27 21 24 5 -3 2 -12 -6 -20z m-59 7 c-4 -5 -3 -11 1 -14 5
-2 3 -2 -4 -1 -7 2 -15 -1 -18 -6 -4 -6 2 -10 12 -11 11 0 13 -3 5 -6 -6 -2
-9 -10 -5 -16 3 -7 -3 -3 -15 7 -28 25 -28 43 1 49 12 2 23 5 25 6 2 0 1 -3
-2 -8z m-494 -40 c12 -14 11 -15 -4 -2 -10 7 -27 11 -38 8 -19 -5 -27 3 -14
15 9 9 42 -3 56 -21z m1257 13 c2 -2 -10 -4 -27 -4 -18 0 -32 5 -32 10 0 9 47
4 59 -6z m100 -44 c24 -46 25 -50 11 -50 -5 0 -10 7 -10 15 0 8 -5 15 -10 15
-7 0 -7 -7 1 -21 10 -19 5 -27 -37 -70 -43 -44 -49 -47 -60 -31 -8 9 -14 25
-14 35 0 10 -10 22 -22 27 -13 5 -18 9 -13 10 6 1 1 5 -10 10 -20 9 -20 9 1 9
11 1 25 6 32 13 9 9 6 16 -16 30 -20 13 -23 18 -9 18 9 0 17 -4 17 -10 0 -5 5
-10 10 -10 7 0 7 6 0 20 -7 12 -7 20 -1 20 5 0 13 -9 16 -21 4 -12 12 -18 21
-15 7 3 16 1 19 -4 4 -6 0 -10 -7 -10 -13 -1 -64 -38 -57 -43 2 -1 13 -9 24
-17 18 -14 19 -14 7 2 -9 12 -10 18 -2 23 7 4 14 -2 17 -14 3 -12 9 -21 13
-21 12 0 5 31 -9 39 -17 11 33 43 53 35 11 -4 16 0 16 11 0 12 -6 15 -22 11
-13 -3 -17 -3 -10 0 6 3 9 11 6 16 -4 7 -2 8 4 4 7 -4 12 -2 12 3 0 19 8 12
29 -29z m-1279 20 c0 -5 -5 -10 -10 -10 -6 0 -8 -10 -4 -24 4 -18 1 -25 -13
-29 -10 -3 5 -5 33 -6 27 0 55 4 62 11 6 6 14 9 18 6 8 -8 -14 -48 -26 -48
-19 0 -10 -18 11 -23 15 -4 19 -2 15 9 -3 8 -1 14 5 14 6 0 7 5 4 10 -3 6 5
10 19 10 14 0 27 4 30 9 3 5 15 7 26 4 11 -3 20 -1 20 4 0 5 13 10 30 10 24 0
27 -3 19 -14 -9 -10 -5 -13 20 -13 23 0 30 4 25 13 -4 6 19 -13 52 -43 33 -30
80 -74 106 -97 l47 -43 11 -102 c5 -56 14 -105 18 -109 4 -4 23 -9 42 -11 39
-3 34 -15 58 138 11 66 6 59 167 231 38 41 71 69 74 62 2 -6 -3 -16 -10 -21
-10 -7 -7 -7 9 -3 23 7 32 -9 10 -18 -8 -3 -5 -6 6 -6 15 -1 16 -4 6 -16 -7
-8 -9 -15 -6 -15 12 0 36 28 36 42 0 10 -3 9 -11 -2 -9 -12 -10 -12 -5 3 3 10
6 22 6 27 0 4 9 6 20 3 11 -3 20 -14 20 -24 0 -13 5 -17 17 -12 11 4 12 8 5
11 -23 7 -12 20 22 24 24 3 32 0 29 -9 -3 -7 -9 -11 -13 -8 -5 3 -11 1 -15 -5
-4 -6 4 -10 19 -10 14 0 27 -4 30 -9 4 -5 -11 -7 -33 -4 -23 3 -41 1 -45 -6
-5 -7 3 -9 26 -4 l33 6 -23 -21 c-25 -22 -64 -19 -55 4 3 8 1 14 -4 14 -13 0
-13 -40 0 -41 7 -1 22 -3 35 -4 12 -1 22 2 22 6 0 5 7 9 15 9 8 0 15 5 15 10
0 6 7 10 15 10 8 0 19 9 25 20 l11 21 30 -22 c20 -14 29 -28 26 -40 -3 -12 0
-16 9 -12 8 3 18 -5 25 -20 13 -29 1 -49 -65 -107 -21 -19 -62 -64 -91 -100
-29 -36 -81 -94 -117 -130 -75 -75 -102 -114 -95 -134 8 -19 75 -38 96 -27 26
14 260 259 329 343 61 75 92 103 106 93 3 -3 4 -2 1 2 -8 10 26 43 38 36 5 -3
7 -1 4 4 -9 15 29 47 48 40 8 -4 15 -18 15 -31 0 -20 -4 -24 -17 -20 -14 4
-14 3 2 -7 19 -12 19 -12 0 -20 -17 -7 -18 -8 -2 -8 9 -1 17 -8 17 -17 0 -9
-8 -23 -17 -30 -16 -13 -16 -13 -1 -8 16 5 17 -17 18 -292 0 -164 3 -307 6
-319 8 -33 -10 -68 -72 -134 -46 -50 -55 -64 -43 -72 60 -38 157 24 393 250
l189 180 41 -30 c23 -16 59 -47 81 -67 22 -21 72 -64 110 -97 39 -32 101 -87
138 -121 l69 -63 -23 -33 c-77 -108 9 -293 146 -314 68 -10 136 11 178 54 93
97 100 182 24 289 -53 75 -150 103 -244 72 -32 -10 -36 -9 -51 12 -9 13 -65
74 -125 136 -60 62 -116 121 -124 132 -16 24 -9 43 31 81 24 22 37 25 159 31
96 6 134 4 140 -4 6 -9 10 -9 14 1 2 6 9 12 15 12 7 0 7 -5 -1 -13 -11 -14 -5
-27 11 -27 5 0 7 4 4 9 -4 5 3 7 14 4 21 -6 21 -6 1 -20 -18 -12 -23 -11 -41
7 -11 11 -30 20 -42 19 l-23 0 23 -9 c33 -14 27 -21 -15 -16 -21 2 -28 1 -15
-1 12 -2 22 -8 22 -12 0 -5 11 -6 25 -3 31 6 33 -6 3 -18 l-23 -9 23 0 c12 -1
22 3 22 9 0 14 63 6 68 -9 2 -6 -4 -11 -12 -11 -9 0 -19 -7 -23 -16 -6 -15 -8
-15 -20 2 -7 10 -13 13 -13 7 0 -7 5 -15 10 -18 6 -4 7 -12 3 -18 -4 -7 0 -6
10 2 11 9 17 10 17 2 0 -6 5 -11 12 -11 9 0 9 3 0 12 -21 21 -13 25 33 18 25
-4 48 -4 50 0 7 11 -22 20 -40 14 -20 -8 -19 6 3 22 20 16 36 18 27 4 -4 -6 5
-10 20 -10 18 0 25 4 22 13 -2 7 7 18 20 24 25 12 25 12 8 -7 -20 -22 -11 -43
16 -35 11 4 19 2 19 -4 0 -6 -7 -11 -16 -11 -14 0 -14 -3 -4 -15 10 -12 10
-15 -4 -15 -9 0 -16 6 -16 13 -1 7 -6 5 -14 -5 -20 -27 -30 -21 -12 7 15 23
15 25 -2 25 -11 0 -18 -8 -19 -21 -2 -25 -23 -52 -23 -30 0 11 -3 11 -15 1
-12 -10 -15 -9 -15 4 0 10 -5 14 -10 11 -6 -4 -8 -10 -5 -15 3 -4 -1 -11 -7
-14 -7 -3 -4 -4 7 -3 13 1 19 -3 17 -13 -1 -10 2 -9 13 4 13 18 19 15 16 -6 0
-4 6 -5 15 -1 11 4 12 8 4 13 -7 4 1 9 20 12 29 4 31 3 25 -20 -5 -22 -4 -23
10 -9 8 9 15 21 15 27 0 7 6 5 16 -4 8 -9 12 -21 8 -28 -5 -8 -2 -9 10 -5 21
8 54 -18 33 -26 -7 -3 -6 -6 5 -6 9 -1 18 5 21 12 2 6 8 9 12 5 13 -12 -6 -28
-35 -28 -16 0 -32 -5 -35 -10 -10 -17 78 -7 93 10 11 13 11 12 3 -7 -15 -30
-14 -33 10 -30 12 1 24 -3 26 -9 5 -16 -45 -15 -51 1 -5 15 -46 27 -46 14 0
-5 -10 -8 -22 -6 -13 2 -17 2 -10 0 8 -3 11 -11 8 -18 -3 -8 2 -11 15 -8 10 3
16 9 13 14 -3 5 0 9 5 9 6 0 11 -4 11 -9 0 -5 9 -11 20 -14 28 -7 25 -20 -11
-56 -21 -22 -26 -31 -15 -31 9 0 16 7 16 15 0 8 9 15 20 15 11 0 20 6 20 14 0
8 7 17 16 20 15 6 15 4 3 -10 -13 -16 -10 -17 29 -11 30 4 42 2 39 -6 -2 -7
-15 -11 -29 -9 -15 1 -33 -7 -47 -22 -15 -16 -29 -22 -44 -18 -18 5 -19 4 -7
-10 15 -16 40 -14 40 3 0 5 7 9 15 9 8 0 15 5 15 11 0 8 6 7 17 -2 13 -11 17
-11 20 -1 3 6 9 10 14 6 5 -3 9 0 9 5 0 6 5 11 10 11 7 0 7 -6 1 -19 -6 -10
-7 -22 -3 -26 4 -5 -1 -5 -10 -2 -10 4 -18 2 -18 -4 0 -6 -4 -8 -9 -4 -5 3
-13 0 -17 -6 -5 -9 1 -10 20 -5 15 4 26 2 26 -4 0 -14 26 -13 50 2 25 16 52
-4 32 -24 -9 -9 -12 -8 -12 6 0 9 -4 15 -10 11 -21 -13 2 -34 33 -29 34 6 32
2 -22 -36 -12 -8 -21 -17 -21 -20 0 -3 24 -5 54 -5 47 0 59 4 85 29 17 17 31
26 31 22 0 -4 -11 -17 -25 -30 -14 -13 -25 -28 -25 -35 0 -14 -35 -14 -62 0
-15 8 -23 8 -32 -1 -6 -6 -6 -10 -1 -9 6 1 25 -5 43 -13 31 -13 32 -16 18 -30
-13 -14 -13 -17 -1 -22 8 -3 12 -12 9 -21 -3 -8 -1 -15 6 -15 6 0 9 4 6 9 -3
5 1 14 8 20 18 15 34 -5 17 -22 -6 -6 -11 -18 -11 -27 1 -11 4 -10 12 5 6 11
17 24 24 28 11 6 10 12 -3 27 -12 14 -20 16 -29 9 -8 -6 -14 -6 -18 0 -8 12 3
41 16 41 5 0 6 -4 3 -10 -12 -20 25 -10 46 13 18 18 21 19 15 4 -3 -10 -6 -23
-6 -28 0 -4 -7 -6 -15 -3 -11 5 -13 2 -9 -10 3 -9 15 -16 26 -16 10 0 16 -4
13 -10 -3 -5 -1 -10 4 -10 6 0 11 -5 11 -11 0 -8 -5 -7 -16 1 -12 11 -18 11
-31 -2 -14 -14 -11 -17 23 -29 22 -7 42 -12 47 -11 10 3 9 -6 -3 -29 -15 -26
-27 -24 -34 7 -5 18 -12 24 -22 20 -10 -4 -13 -2 -8 7 5 8 2 7 -9 -2 -25 -20
-21 -32 9 -25 21 5 25 3 24 -12 -4 -39 -1 -49 12 -36 17 17 33 15 18 -3 -6 -8
-8 -20 -4 -26 4 -7 3 -9 -4 -5 -6 3 -13 2 -17 -4 -14 -22 18 -8 47 20 33 33
48 38 48 15 0 -8 0 -18 1 -22 0 -4 -4 -9 -10 -11 -7 -2 -8 3 -4 15 6 16 5 16
-10 4 -9 -7 -17 -21 -17 -30 0 -11 3 -12 8 -4 5 8 13 9 22 3 17 -11 37 -13 27
-4 -9 9 19 34 39 34 15 0 15 -2 -3 -17 -29 -27 -34 -49 -12 -50 10 -1 19 3 19
8 0 5 6 4 14 -3 19 -18 5 -51 -25 -59 -24 -7 -24 -7 3 -8 18 -1 29 5 33 19 7
21 20 26 29 12 2 -4 1 -14 -4 -22 -6 -9 -3 -19 8 -28 9 -7 11 -11 5 -7 -7 3
-13 1 -13 -5 0 -7 -7 -5 -16 4 -8 9 -23 15 -32 15 -16 -1 -16 -2 0 -6 18 -4
14 -31 -6 -45 -7 -5 -4 -8 7 -8 9 0 17 7 17 16 0 19 40 9 53 -12 11 -19 27
-18 27 1 0 8 -3 15 -7 15 -5 0 -8 11 -8 24 0 13 3 22 8 19 4 -2 7 3 7 12 0 9
-4 13 -10 10 -5 -3 -10 -1 -10 4 0 13 10 14 28 2 10 -6 11 -13 1 -34 -7 -15
-9 -30 -4 -35 4 -4 10 -1 12 6 3 6 9 9 14 6 6 -3 2 -12 -8 -21 -13 -11 -14
-13 -3 -10 25 8 24 -73 -1 -91 -10 -7 -19 -18 -19 -24 0 -7 6 -3 14 8 17 23
23 19 29 -23 5 -32 -13 -51 -35 -36 -7 3 -8 1 -4 -6 4 -6 16 -9 27 -6 11 4 19
2 19 -4 0 -6 -5 -11 -11 -11 -5 0 -7 -5 -3 -11 3 -6 6 -48 5 -93 -1 -44 -1
-88 0 -96 1 -8 2 -239 3 -512 l1 -498 -407 2 c-324 1 -406 3 -400 13 4 7 57
65 117 129 l110 117 78 -7 77 -7 0 45 c0 26 -6 50 -13 57 -8 6 -58 14 -113 17
l-100 7 -87 -93 c-68 -73 -88 -89 -93 -75 -10 25 2 193 15 208 6 8 50 38 98
67 105 64 143 100 143 134 0 31 -24 56 -54 56 -12 0 -60 -19 -107 -42 -46 -23
-87 -44 -91 -46 -4 -2 -9 72 -10 165 l-3 168 -30 -3 c-65 -5 -72 -10 -79 -49
-3 -21 -6 -153 -6 -295 l0 -256 -52 21 c-41 15 -77 20 -158 21 l-105 1 -3 -31
c-4 -44 19 -64 76 -64 58 0 89 -20 170 -110 46 -50 60 -75 66 -107 l6 -43
-270 0 -270 0 2 653 3 652 57 5 c68 6 87 25 88 88 0 88 27 82 -380 82 l-360 0
0 60 0 60 75 0 c62 0 79 4 95 20 21 21 27 83 12 108 -14 21 -72 32 -168 32
-64 0 -95 4 -103 13 -6 8 -8 16 -6 19 7 7 -110 121 -180 176 -67 53 -315 226
-392 273 -34 21 -80 43 -102 49 -39 10 -44 9 -98 -28 -32 -21 -112 -71 -178
-110 -156 -92 -239 -151 -353 -251 l-93 -82 -47 37 c-26 21 -66 58 -88 83
l-41 44 -8 209 c-7 209 2 587 14 621 7 17 10 17 41 -9 l33 -29 -24 -6 -24 -7
25 -1 c21 -1 22 -3 10 -12 -12 -8 -8 -9 15 -6 32 6 46 -6 143 -123 74 -90 285
-301 310 -311 16 -6 32 -4 53 6 45 24 38 54 -29 127 -32 35 -96 108 -142 163
-94 112 -147 166 -234 242 -59 51 -59 51 -46 82 7 17 17 31 22 31 5 0 7 -4 4
-9 -7 -10 22 -24 34 -16 5 3 11 1 15 -5 9 -15 28 -12 22 4 -4 10 0 12 14 9 13
-4 19 0 19 11 0 9 7 16 15 16 8 0 15 -4 15 -10z m47 -41 c-6 -10 -15 -19 -18
-19 -12 0 -32 30 -25 37 4 4 11 1 16 -7 8 -13 10 -12 10 2 0 11 5 15 15 12 11
-5 12 -10 2 -25z m88 -20 c-7 -11 -35 -12 -35 -1 0 4 9 8 20 9 11 1 18 -2 15
-8z m1615 -89 c42 -41 69 -74 65 -81 -6 -8 -2 -8 13 0 28 15 30 14 27 -14 -3
-19 1 -25 17 -25 16 0 18 -3 9 -13 -6 -8 -8 -17 -4 -21 4 -3 -9 -22 -28 -42
-33 -34 -34 -37 -33 -117 0 -45 2 -90 5 -100 3 -12 -37 -58 -131 -152 l-135
-135 -3 308 c-3 369 -2 388 37 395 16 3 39 20 52 36 13 16 27 30 30 30 4 1 39
-30 79 -69z m-2187 17 c3 -7 5 -58 6 -113 0 -54 4 -213 7 -351 4 -148 2 -253
-3 -253 -5 0 -70 60 -145 134 l-136 134 5 79 c4 68 2 84 -19 124 l-23 45 33
-1 c18 0 35 2 38 6 6 10 -24 19 -44 13 -13 -4 -12 -1 5 14 17 15 19 22 10 32
-10 10 -8 12 6 6 10 -3 26 -6 34 -6 13 0 13 -3 3 -15 -7 -9 -10 -18 -6 -22 3
-3 6 -1 6 5 0 7 9 12 20 12 l20 0 -20 20 c-11 11 -28 20 -37 20 -15 0 -13 4 7
20 16 12 29 15 35 9 12 -12 45 -12 45 0 0 5 -6 11 -12 13 -8 3 -4 9 10 17 14
7 22 8 22 1 0 -5 -5 -10 -11 -10 -5 0 -7 -5 -3 -12 5 -7 11 -5 21 8 11 16 17
17 33 6 12 -7 20 -8 20 -2 0 5 -5 10 -10 10 -10 0 3 29 25 57 13 16 52 16 58
0z m2770 -33 l36 -41 -76 -59 c-42 -32 -82 -65 -89 -71 -19 -19 -28 -16 -61
20 -25 27 -27 35 -16 45 7 7 17 10 23 7 5 -3 19 9 32 28 27 38 100 115 109
113 3 0 22 -19 42 -42z m-3440 -48 c24 -20 47 -36 51 -36 3 0 15 -9 25 -19 19
-19 18 -20 -30 -51 -27 -17 -53 -29 -58 -26 -5 3 -36 37 -69 74 l-61 69 42 30
c37 26 43 27 49 13 3 -10 26 -34 51 -54z m-387 38 c24 -14 44 -28 44 -30 0 -3
-33 -42 -73 -87 -40 -45 -80 -93 -89 -106 l-17 -24 -39 34 c-21 19 -46 39 -56
44 -20 11 -12 47 8 39 16 -6 78 45 131 107 22 26 41 48 43 48 2 1 23 -11 48
-25z m4227 -60 c20 -23 53 -52 72 -65 19 -13 35 -26 35 -29 0 -3 -20 -18 -45
-34 -30 -18 -53 -26 -68 -22 -19 5 -127 147 -127 168 0 4 17 19 38 33 34 24
38 24 47 8 6 -9 27 -36 48 -59z m-3433 2 c0 -3 -4 -8 -10 -11 -5 -3 -10 -1
-10 4 0 6 5 11 10 11 6 0 10 -2 10 -4z m-27 -51 c-7 -21 -12 -19 -10 4 0 11 5
18 9 15 4 -3 5 -11 1 -19z m-100 -133 c27 -24 24 -106 -5 -126 -30 -21 -106
-21 -130 1 -25 23 -23 72 7 115 35 51 77 54 128 10z m2863 19 c90 -55 50 -171
-59 -171 -39 0 -54 13 -67 61 -12 40 11 93 49 114 34 19 40 18 77 -4z m314 -2
c0 -6 -4 -7 -10 -4 -5 3 -10 11 -10 16 0 6 5 7 10 4 6 -3 10 -11 10 -16z
m-109 -58 c-7 -5 -10 -14 -7 -20 4 -6 3 -11 -2 -11 -5 0 -12 9 -15 20 -4 15 0
20 16 20 17 0 19 -2 8 -9z m-4005 -19 c50 -40 57 -95 18 -141 -54 -65 -144
-26 -144 62 0 45 12 67 45 85 29 16 57 14 81 -6z m4757 -8 c37 -36 44 -80 20
-113 -22 -29 -64 -54 -73 -43 -3 4 -16 8 -30 10 -64 7 -88 96 -41 146 34 36
89 36 124 0z m-383 -34 c0 -5 -5 -10 -11 -10 -5 0 -7 5 -4 10 3 6 8 10 11 10
2 0 4 -4 4 -10z m-26 -45 c-4 -8 -8 -15 -10 -15 -2 0 -4 7 -4 15 0 8 4 15 10
15 5 0 7 -7 4 -15z m-14 -28 c27 -13 40 -26 40 -42 0 -6 -3 -6 -8 1 -4 6 -15
13 -24 17 -14 5 -18 1 -18 -18 0 -14 -4 -25 -9 -25 -11 0 -9 39 3 58 6 11 -18
18 -46 13 -5 0 -8 4 -8 10 0 11 29 6 70 -14z m80 9 c0 -11 -19 -15 -25 -6 -3
5 1 10 9 10 9 0 16 -2 16 -4z m-3913 -23 c0 -8 -12 -13 -31 -12 -17 1 -23 3
-13 6 9 2 17 8 17 12 0 4 6 8 13 8 8 0 14 -6 14 -14z m71 5 c9 -9 15 -9 20 -3
4 6 32 11 63 10 50 0 60 -4 98 -38 l42 -38 -25 -32 c-14 -17 -74 -80 -133
-138 -59 -58 -113 -114 -119 -124 -9 -17 -14 -17 -41 -6 -25 10 -32 19 -36 53
-3 23 -11 44 -18 49 -11 6 -10 9 3 14 22 9 16 34 -13 58 -23 19 -23 20 -2 15
16 -4 20 -2 16 9 -3 8 0 19 8 24 11 7 11 11 2 17 -10 6 -11 39 -3 50 2 1 3 8
4 15 1 7 15 11 38 11 22 -1 39 3 42 12 3 9 -1 11 -12 8 -14 -5 -15 -4 -2 5 8
6 24 11 35 11 15 0 16 -3 7 -12 -7 -7 -12 -19 -12 -27 0 -9 8 -3 19 14 21 34
18 48 -10 40 -11 -4 -19 -2 -19 4 0 15 33 14 48 -1z m-205 -23 c-3 -9 -8 -14
-10 -11 -3 3 -2 9 2 15 9 16 15 13 8 -4z m4107 -4 c0 -6 -4 -12 -8 -15 -5 -3
-9 1 -9 9 0 8 4 15 9 15 4 0 8 -4 8 -9z m-3237 -291 c131 -124 259 -237 285
-252 l47 -28 -108 0 -107 0 -11 -27 c-14 -36 -4 -94 18 -110 9 -7 45 -13 79
-13 71 0 74 -3 74 -87 l0 -56 -364 7 c-330 6 -364 5 -370 -9 -18 -47 5 -124
43 -145 11 -5 40 -10 64 -10 l45 0 4 -652 c2 -359 4 -653 3 -654 0 0 -120 1
-267 4 -241 4 -268 6 -268 21 0 9 46 62 103 117 98 97 114 121 134 202 4 17 1
22 -13 22 -11 0 -28 3 -40 6 -24 6 -121 -72 -161 -131 -13 -19 -28 -35 -33
-35 -6 0 -10 82 -10 210 l0 210 -60 0 -60 0 0 -135 c0 -74 -3 -135 -6 -135 -3
0 -58 45 -122 101 -160 139 -186 146 -180 53 3 -48 5 -50 88 -119 46 -38 115
-100 152 -137 l68 -67 0 -90 0 -91 -399 0 c-220 0 -407 -3 -416 -6 -15 -6 -16
41 -13 622 1 346 4 662 6 702 3 65 6 72 22 67 10 -3 21 -1 25 5 4 6 -5 10 -22
11 -15 0 -22 3 -15 6 6 2 12 9 12 14 0 6 -4 7 -10 4 -5 -3 -10 -1 -10 4 0 15
13 14 28 -1 10 -10 15 -10 22 2 8 12 11 11 16 -7 8 -28 18 -23 38 19 20 39 20
44 1 28 -8 -7 -15 -19 -15 -26 0 -8 -4 -14 -10 -14 -5 0 -10 5 -10 10 0 6 -10
10 -22 10 -13 0 -27 4 -33 8 -14 10 -19 52 -6 52 6 0 11 5 11 11 0 5 -4 7 -10
4 -5 -3 -10 -2 -10 3 0 6 7 13 16 16 8 3 12 2 9 -4 -3 -6 2 -10 13 -10 15 0
18 7 17 32 l-2 31 19 -23 c16 -20 17 -25 4 -44 -7 -12 -24 -21 -36 -21 -13 0
-25 -5 -27 -11 -2 -7 7 -10 24 -8 15 2 20 1 11 -2 -10 -3 -18 -10 -18 -16 0
-5 7 -7 16 -4 9 3 20 6 25 6 4 0 6 7 3 15 -4 8 -1 15 4 15 6 0 14 9 17 20 3
11 13 20 21 20 8 0 14 5 14 10 0 6 5 10 11 10 5 0 7 -4 4 -10 -3 -6 4 -10 17
-11 22 0 22 -1 3 -8 -11 -5 -23 -7 -26 -5 -4 2 -15 -6 -25 -18 -19 -20 -19
-21 6 -13 75 23 86 34 53 55 -13 8 -14 13 -5 16 15 7 16 36 0 52 -9 9 -9 12 0
12 7 0 12 -4 12 -10 0 -5 13 -16 29 -24 21 -11 31 -12 40 -3 8 8 11 8 11 0 0
-14 36 -5 51 13 8 10 8 14 0 14 -6 0 -11 -4 -11 -9 0 -14 -39 -9 -44 6 -3 7
-11 13 -18 13 -10 0 -10 -2 0 -9 11 -7 11 -9 -2 -14 -9 -4 -16 -2 -16 3 0 6
-8 11 -17 11 -17 1 -17 2 0 6 9 2 15 8 12 13 -3 4 -15 6 -27 2 -15 -4 -19 -2
-13 7 4 7 16 11 26 8 10 -3 22 -1 25 5 4 6 9 6 14 -2 10 -17 33 -2 26 17 -4
11 1 14 22 12 15 -1 43 -1 62 0 33 3 33 4 10 11 -17 5 -19 8 -7 9 9 1 17 6 17
12 0 6 11 20 25 31 14 11 25 26 25 34 0 8 5 14 10 14 6 0 10 11 10 25 0 16 6
25 15 25 8 0 15 6 15 14 0 8 4 17 9 20 5 4 7 -3 4 -14 -3 -11 -3 -20 -1 -20
17 0 68 24 68 31 0 6 -8 5 -19 -1 -30 -15 -38 -12 -13 6 12 8 21 23 21 32 -1
15 -2 15 -6 0 -6 -22 -19 -23 -27 -3 -5 14 9 20 40 16 6 -1 16 10 22 24 15 33
15 36 -3 29 -8 -4 -15 -1 -15 5 0 15 21 13 44 -4 22 -17 36 -19 36 -7 0 5 -10
14 -22 19 -22 10 -22 10 6 10 19 0 36 9 48 24 11 13 25 32 33 41 8 10 13 23
11 30 -1 7 -1 10 1 6 8 -14 32 -8 27 6 -4 11 0 13 16 9 14 -4 20 -1 18 8 -2 9
8 14 32 14 21 0 42 7 52 18 13 15 21 16 37 7 23 -12 28 -1 9 19 -11 11 -8 12
12 6 17 -4 21 -3 11 3 -8 6 -9 12 -3 16 15 9 21 -5 15 -37 -5 -24 -10 -28 -30
-24 -14 2 -21 1 -16 -3 4 -5 17 -10 28 -12 11 -2 19 -10 17 -17 -1 -7 2 -19 8
-26 6 -8 7 -16 2 -19 -5 -3 -8 -17 -7 -31 4 -31 -15 -33 -42 -2 -32 35 -35 55
-10 60 20 4 20 4 2 5 -11 1 -27 -3 -35 -8 -13 -9 -13 -11 0 -20 13 -8 11 -12
-8 -30 -15 -14 -29 -19 -42 -15 -15 5 -18 3 -14 -9 8 -21 21 -20 52 5 16 12
28 16 30 10 2 -6 7 -9 12 -6 4 3 13 -2 20 -10 7 -8 19 -15 27 -15 8 0 11 -5 7
-11 -4 -6 -19 -9 -36 -5 -18 3 -27 2 -23 -4 3 -6 2 -10 -3 -10 -19 0 -87 -63
-111 -103 -52 -85 -24 -218 58 -276 151 -108 378 33 340 211 -5 24 -18 57 -27
73 l-18 29 66 56 c36 31 128 113 205 182 114 102 143 123 155 114 8 -6 122
-112 253 -236z m-943 221 c0 -15 -31 -22 -48 -11 -14 9 -13 10 6 5 13 -4 22
-2 22 4 0 6 5 11 10 11 6 0 10 -4 10 -9z m24 -16 c-4 -8 -11 -15 -16 -15 -6 0
-5 6 2 15 7 8 14 15 16 15 2 0 1 -7 -2 -15z m36 -10 c0 -8 -4 -15 -10 -15 -5
0 -10 7 -10 15 0 8 5 15 10 15 6 0 10 -7 10 -15z m4135 -5 c3 -5 -1 -10 -9
-10 -9 0 -16 5 -16 10 0 6 4 10 9 10 6 0 13 -4 16 -10z m-4220 -24 c17 7 18 3
9 -20 -3 -9 -10 -16 -16 -16 -5 0 -7 4 -3 9 3 6 -4 15 -15 21 -11 6 -20 15
-20 21 0 6 7 4 15 -5 9 -8 22 -13 30 -10z m55 10 c0 -11 -19 -15 -25 -6 -3 5
1 10 9 10 9 0 16 -2 16 -4z m-90 -38 c0 -6 -3 -8 -7 -5 -3 4 -16 1 -29 -7 -12
-8 -24 -12 -28 -9 -6 7 32 30 52 32 6 1 12 -4 12 -11z m190 -53 c-7 -8 -17
-15 -23 -15 -6 0 -2 7 9 15 25 19 30 19 14 0z m4227 -51 c-3 -3 -12 -4 -19 -1
-8 3 -5 6 6 6 11 1 17 -2 13 -5z m-4547 -8 c0 -3 -4 -8 -10 -11 -5 -3 -10 -1
-10 4 0 6 5 11 10 11 6 0 10 -2 10 -4z m-30 -26 c0 -5 -4 -10 -10 -10 -5 0
-10 5 -10 10 0 6 5 10 10 10 6 0 10 -4 10 -10z m-50 -10 c0 -5 -5 -10 -11 -10
-5 0 -7 5 -4 10 3 6 8 10 11 10 2 0 4 -4 4 -10z m2358 -4 c35 -18 68 -55 77
-85 39 -127 -69 -243 -178 -192 -76 36 -108 77 -109 140 -1 107 118 185 210
137z m2402 0 c0 -2 -7 -6 -15 -10 -8 -3 -15 -1 -15 4 0 6 7 10 15 10 8 0 15
-2 15 -4z m-4810 -16 c0 -5 -5 -10 -11 -10 -5 0 -7 5 -4 10 3 6 8 10 11 10 2
0 4 -4 4 -10z m4765 0 c-3 -5 -11 -10 -16 -10 -6 0 -7 5 -4 10 3 6 11 10 16
10 6 0 7 -4 4 -10z m32 -16 c-3 -3 -12 -4 -19 -1 -8 3 -5 6 6 6 11 1 17 -2 13
-5z m-4782 -14 c3 -5 -1 -10 -10 -10 -9 0 -13 5 -10 10 3 6 8 10 10 10 2 0 7
-4 10 -10z m4751 0 c8 0 14 -4 14 -8 0 -5 -13 -7 -30 -4 -16 2 -30 9 -30 14 0
6 7 7 16 4 9 -3 22 -6 30 -6z m-4856 -20 c0 -5 -8 -10 -17 -10 -15 0 -16 2 -3
10 19 12 20 12 20 0z m4820 -10 c0 -5 -5 -10 -11 -10 -5 0 -7 5 -4 10 3 6 8
10 11 10 2 0 4 -4 4 -10z m150 -10 c0 -5 -4 -10 -10 -10 -5 0 -10 5 -10 10 0
6 5 10 10 10 6 0 10 -4 10 -10z m-2840 -104 l0 -73 -52 -7 c-64 -7 -138 -8
-138 -1 0 8 78 77 115 102 18 12 37 19 41 15 5 -4 6 -3 2 2 -8 10 9 36 23 36
5 0 9 -33 9 -74z m745 -19 c33 -30 57 -58 54 -61 -4 -4 -46 -10 -93 -13 l-86
-6 0 64 c0 35 3 74 6 86 6 23 6 23 33 4 14 -11 53 -44 86 -74z m2055 72 c-12
-22 -37 -35 -47 -25 -3 3 3 9 13 13 10 3 23 12 27 20 13 21 19 15 7 -8z
m-4930 -13 c0 -2 -8 -10 -17 -17 -16 -13 -17 -12 -4 4 13 16 21 21 21 13z
m4960 0 c0 -3 -4 -8 -10 -11 -5 -3 -10 -1 -10 4 0 6 5 11 10 11 6 0 10 -2 10
-4z m-4422 -31 c17 -14 34 -40 37 -57 6 -28 3 -36 -24 -60 -39 -35 -70 -36
-101 -3 -34 37 -31 81 8 117 39 34 43 34 80 3z m3906 -26 c32 -38 33 -63 2
-94 -54 -54 -122 -35 -140 38 -8 32 -6 40 14 62 35 37 90 35 124 -6z m551 11
c-3 -5 -11 -10 -16 -10 -6 0 -7 5 -4 10 3 6 11 10 16 10 6 0 7 -4 4 -10z
m-5068 -6 c-3 -3 -12 -4 -19 -1 -8 3 -5 6 6 6 11 1 17 -2 13 -5z m42 -24 c-13
-35 -30 -41 -21 -7 4 18 19 36 29 37 1 0 -3 -13 -8 -30z m-96 -15 c-3 -9 -8
-14 -10 -11 -3 3 -2 9 2 15 9 16 15 13 8 -4z m54 -3 c-10 -10 -17 -25 -17 -34
0 -18 -37 -54 -47 -45 -3 4 4 19 18 33 l24 26 -25 -6 c-19 -5 -18 -2 8 11 17
9 32 20 32 25 0 4 5 8 12 8 6 0 4 -7 -5 -18z m5143 -12 c0 -5 -4 -10 -10 -10
-5 0 -10 5 -10 10 0 6 5 10 10 10 6 0 10 -4 10 -10z m-5223 -37 c1 -24 0 -26
-11 -11 -12 16 -14 16 -33 -3 -14 -14 -23 -17 -27 -10 -4 6 -2 11 4 11 7 0 23
9 37 20 14 11 26 20 27 20 0 0 2 -12 3 -27z m5261 -10 c-14 -17 -25 -16 -31 1
-4 10 2 13 18 12 17 -1 21 -4 13 -13z m57 -53 c3 -5 -5 -9 -17 -8 -39 2 -48
-2 -48 -16 0 -23 -16 -27 -17 -5 -2 29 67 53 82 29z m-5495 -15 c7 -9 8 -15 2
-15 -5 0 -12 7 -16 15 -3 8 -4 15 -2 15 2 0 9 -7 16 -15z m5494 -21 c3 -8 2
-12 -4 -9 -6 3 -10 10 -10 16 0 14 7 11 14 -7z m-5462 -16 c-7 -7 -12 -8 -12
-2 0 14 12 26 19 19 2 -3 -1 -11 -7 -17z m-34 -1 c15 4 15 3 2 -7 -12 -9 -7
-11 24 -6 29 4 36 2 28 -6 -26 -26 -102 -2 -85 26 4 6 8 6 10 -1 3 -7 12 -9
21 -6z m5582 -1 c0 -3 -4 -8 -10 -11 -5 -3 -10 -1 -10 4 0 6 5 11 10 11 6 0
10 -2 10 -4z m30 -41 c-7 -9 -15 -13 -18 -10 -3 2 -11 -3 -18 -13 -12 -16 -13
-16 -14 0 0 9 12 21 28 26 37 14 36 14 22 -3z m-2198 -65 l3 -55 -652 0 -653
0 0 55 0 55 649 0 649 0 4 -55z m2219 23 c13 -16 12 -17 -3 -4 -10 7 -18 15
-18 17 0 8 8 3 21 -13z m-41 -13 c0 -5 -2 -10 -4 -10 -3 0 -8 5 -11 10 -3 6
-1 10 4 10 6 0 11 -4 11 -10z m-3230 -404 c0 -234 -18 -525 -33 -540 -13 -12
-92 -14 -104 -3 -3 4 -10 150 -14 325 -9 373 -7 335 -19 327 -5 -3 -10 -17
-10 -31 0 -18 -5 -24 -23 -24 -13 0 -28 -5 -35 -12 -9 -9 -12 -3 -12 29 0 22
-3 55 -6 72 l-6 31 131 0 131 0 0 -174z m442 164 c21 -6 42 -19 48 -30 9 -18
15 -352 6 -361 -2 -2 -45 -3 -95 -1 l-91 3 0 178 c0 185 4 204 45 214 34 8 49
7 87 -3z m518 -222 c0 -128 -3 -276 -6 -328 l-7 -95 -38 0 c-22 0 -39 3 -39 8
0 15 -29 6 -33 -10 -8 -38 -24 420 -19 580 l2 77 70 0 70 0 0 -232z m-1512
-70 l3 -148 -80 0 c-63 0 -80 3 -85 16 -3 9 -6 71 -6 139 0 146 0 146 100 142
l65 -2 3 -147z m2060 146 c21 -6 22 -11 22 -103 0 -53 -3 -120 -7 -149 l-6
-53 -71 3 -71 3 -3 140 c-2 123 0 141 15 152 18 14 82 17 121 7z m-2070 -616
c8 -8 12 -58 12 -160 l0 -148 -80 0 -80 0 0 153 c0 85 3 157 7 160 11 12 128
8 141 -5z m2082 -5 c9 -9 11 -197 3 -253 l-8 -55 -73 -3 -73 -3 3 158 3 157
25 7 c25 8 110 2 120 -8z m-1012 -12 c23 -12 24 -16 20 -131 -2 -65 -5 -120
-8 -123 -3 -2 -56 -7 -118 -10 l-113 -7 3 137 c3 137 3 137 28 145 36 11 161
3 188 -11z m-595 -397 c55 -2 87 0 87 7 0 12 32 8 42 -6 5 -6 8 -5 8 3 0 6 7
12 15 12 10 0 15 -10 15 -31 0 -28 -2 -31 -25 -25 -14 4 -31 3 -38 -1 -16 -10
-150 -4 -157 7 -3 5 -34 12 -70 16 -55 7 -60 9 -35 15 l30 7 -31 1 c-33 1 -46
-18 -58 -79 -2 -14 -3 0 -1 30 2 30 4 57 4 59 1 2 29 0 64 -4 34 -4 101 -9
150 -11z m695 -36 l3 -48 -199 0 -199 0 -7 38 c-3 20 -6 43 -6 50 0 10 44 12
203 10 l202 -3 3 -47z m467 24 c-3 -3 -11 0 -18 7 -9 10 -8 11 6 5 10 -3 15
-9 12 -12z m-102 1 c-13 -2 -35 -2 -50 0 -16 2 -5 4 22 4 28 0 40 -2 28 -4z
m1467 -253 c-14 -5 -77 -25 -140 -45 -115 -37 -202 -57 -515 -121 -93 -19
-204 -43 -245 -54 -41 -10 -129 -28 -195 -40 -477 -86 -597 -131 -770 -291
-97 -90 -110 -99 -139 -95 -17 3 -76 8 -131 12 -55 4 -94 9 -86 12 9 3 -4 12
-30 21 -35 13 -44 22 -45 41 -1 14 -5 36 -9 48 -9 26 -10 26 -120 -2 -139 -36
-196 -48 -202 -42 -3 3 -1 6 6 6 7 0 9 5 6 11 -5 7 6 8 32 5 28 -5 33 -4 18 3
-17 8 -17 10 -3 10 24 1 34 22 14 33 -9 5 -16 15 -16 22 0 16 -1 16 -151 22
-111 5 -132 3 -185 -16 -87 -32 -157 -48 -274 -62 -74 -9 -96 -14 -73 -18 45
-7 33 -19 -68 -69 -79 -39 -98 -44 -240 -61 -85 -11 -176 -24 -204 -30 -141
-31 -233 -41 -241 -28 -3 5 -11 7 -18 5 -11 -4 -24 3 -96 50 l-33 21 42 -5
c38 -5 44 -3 76 33 19 21 38 53 41 71 11 61 -30 120 -95 136 -33 8 -86 -18
-112 -54 -20 -29 -22 -29 -120 -29 -92 0 -99 -1 -99 -20 0 -10 -9 -24 -19 -30
-25 -13 -61 -13 -61 0 0 6 -7 10 -15 10 -8 0 -19 9 -25 20 -6 11 -17 20 -25
20 -8 0 -15 5 -15 10 0 6 -8 10 -18 10 -11 0 -24 11 -30 25 -6 14 -17 25 -24
25 -9 0 -8 3 2 10 12 8 10 10 -10 10 -20 0 -22 2 -10 11 11 8 -10 9 -75 4 -82
-5 -179 -21 -147 -24 7 -1 11 -5 8 -10 -3 -5 1 -14 9 -21 12 -10 15 -9 16 6 0
11 7 3 16 -19 16 -38 16 -39 -15 -66 l-30 -28 -11 87 c-6 47 -11 130 -11 183
l0 97 38 2 37 1 -37 4 c-34 4 -38 7 -38 31 0 15 -3 57 -6 94 l-7 67 2474 -1
c1361 0 2463 -4 2449 -8z m853 -21 c-8 -29 -34 -36 -159 -45 -89 -7 -102 -10
-69 -15 37 -7 37 -7 -13 -6 -28 1 -52 -1 -52 -4 0 -6 -82 -40 -97 -41 -5 0
-13 -4 -19 -9 -6 -5 -18 -7 -27 -3 -8 3 -18 1 -21 -4 -3 -5 -17 -7 -30 -5 -14
3 -34 -2 -46 -10 -12 -9 -29 -13 -36 -10 -8 3 -25 -6 -37 -21 -13 -14 -28 -26
-36 -26 -7 0 -11 -6 -9 -12 3 -7 -1 -18 -8 -25 -14 -15 -48 -18 -39 -4 3 5 1
12 -5 16 -5 3 -10 2 -10 -3 0 -6 -11 -13 -25 -16 -14 -4 -25 -11 -25 -16 0 -6
-12 -10 -27 -10 -27 -1 -63 -20 -63 -34 0 -3 8 -6 18 -6 14 0 15 -2 2 -10 -8
-5 -11 -10 -6 -10 5 0 3 -7 -4 -15 -10 -12 -9 -15 6 -16 27 -2 -56 -28 -86
-27 l-25 0 25 7 c18 6 3 10 -55 14 -129 11 -158 8 -125 -14 12 -7 11 -10 -8
-15 -21 -6 -21 -7 -5 -21 10 -8 12 -12 6 -8 -7 3 -13 1 -13 -4 0 -6 -7 -11
-16 -11 -9 0 -12 5 -8 12 5 8 2 9 -10 5 -10 -4 -23 -7 -29 -7 -8 0 -7 -3 1 -9
11 -7 11 -9 -2 -14 -9 -4 -16 -1 -16 4 0 6 -9 9 -20 6 -11 -3 -20 -1 -20 4 0
5 6 9 13 9 8 0 7 4 -3 10 -20 13 -33 13 -25 0 9 -15 -4 -12 -21 4 -12 13 -12
16 3 26 20 12 32 13 -132 -19 -55 -11 -154 -29 -220 -41 -172 -31 -286 -60
-278 -73 3 -6 1 -7 -5 -3 -17 10 -309 -58 -397 -93 -46 -19 -110 -56 -157 -92
-85 -65 -189 -117 -301 -150 -40 -12 -76 -25 -82 -29 -14 -11 -157 -61 -161
-57 -7 6 241 119 304 139 59 18 64 22 93 74 56 99 187 192 342 243 51 17 171
47 267 66 96 20 193 41 214 46 22 6 98 21 171 34 72 13 167 33 211 44 43 11
156 34 251 51 139 24 201 41 320 86 185 70 190 73 240 127 23 25 47 47 55 50
7 3 133 6 280 6 265 1 266 1 261 -20z m-5556 -385 c-3 -3 -12 -4 -19 -1 -8 3
-5 6 6 6 11 1 17 -2 13 -5z m5497 -16 c-8 -29 -6 -28 -32 -21 -12 3 -19 9 -16
14 3 5 -3 9 -13 10 -16 0 -16 1 2 9 11 5 30 9 43 9 20 1 22 -3 16 -21z m-5594
-48 c0 -16 -4 -30 -10 -30 -5 0 -10 14 -10 30 0 17 5 30 10 30 6 0 10 -13 10
-30z m4175 0 c8 -13 -5 -13 -25 0 -13 8 -13 10 2 10 9 0 20 -4 23 -10z m-525
-122 c0 -10 3 -9 9 1 6 10 10 10 16 1 9 -15 -3 -80 -16 -80 -6 0 -7 -4 -4 -10
3 -5 2 -10 -4 -10 -5 0 -18 -3 -28 -6 -15 -5 -15 -4 -3 5 13 9 13 11 -1 11 -9
0 -22 -7 -29 -15 -17 -21 -37 -19 -51 6 -7 13 -7 19 -1 15 6 -3 13 -2 17 4 3
5 0 10 -8 10 -8 0 -20 6 -26 14 -9 11 -7 15 11 20 19 5 20 8 8 16 -11 7 -6 10
22 10 20 0 40 5 43 10 9 14 45 12 45 -2z m-3697 -50 c4 -12 2 -18 -7 -18 -14
0 -26 21 -26 47 0 12 2 12 13 1 7 -7 16 -21 20 -30z m4793 18 c-25 -11 -26
-14 -10 -20 16 -6 16 -8 4 -16 -8 -6 -12 -10 -7 -10 4 0 0 -11 -9 -24 -8 -14
-15 -28 -14 -31 0 -4 -11 -16 -26 -28 -19 -14 -29 -17 -32 -9 -5 17 -22 15
-22 -2 0 -18 -66 -38 -254 -77 -186 -39 -243 -55 -289 -85 -33 -22 -69 -77
-71 -109 -2 -31 -188 -107 -371 -150 -60 -14 -156 -37 -213 -50 -115 -28 -126
-29 -118 -16 4 5 -3 7 -13 4 -13 -3 -23 2 -31 16 -10 19 -7 23 35 41 26 11
105 32 177 46 122 24 284 66 390 100 42 14 53 24 119 120 69 100 75 106 143
138 39 19 136 51 216 71 80 20 183 48 230 62 75 22 154 40 185 41 6 0 -3 -5
-19 -12z m347 -10 c54 -23 107 -93 107 -142 0 -17 -55 -20 -66 -3 -3 6 -26 20
-49 30 -50 22 -65 19 -150 -36 -31 -19 -58 -35 -60 -35 -10 0 -4 72 9 103 7
18 30 47 50 65 30 26 45 32 82 32 24 0 59 -6 77 -14z m-5103 -10 c0 -3 -4 -8
-10 -11 -5 -3 -10 -1 -10 4 0 6 5 11 10 11 6 0 10 -2 10 -4z m2818 -51 c-13
-29 -16 -30 -258 -90 -102 -25 -192 -48 -200 -51 -22 -9 -80 -10 -80 -2 0 3 6
9 13 11 38 16 -51 3 -123 -17 -122 -34 -551 -176 -715 -236 -77 -28 -169 -62
-205 -75 -36 -13 -119 -46 -185 -75 -66 -29 -147 -63 -179 -77 -33 -13 -101
-45 -150 -70 -109 -55 -208 -93 -239 -93 -59 1 192 168 353 235 36 15 70 31
75 35 6 5 44 22 85 38 101 40 227 92 331 135 126 53 604 209 749 245 343 85
482 109 627 111 l113 1 -12 -25z"/>
<path d="M3262 6079 c-107 -53 -122 -177 -33 -272 51 -55 102 -69 172 -46 117
40 163 192 81 274 -35 36 -98 65 -142 65 -19 0 -54 -10 -78 -21z m116 -105
c51 -36 5 -122 -52 -96 -31 14 -42 57 -21 88 18 28 41 30 73 8z"/>
<path d="M1573 6045 c-40 -20 -57 -36 -72 -69 -29 -58 -28 -139 2 -190 61
-107 228 -101 294 12 44 75 20 182 -52 238 -51 39 -107 42 -172 9z m115 -110
c25 -54 4 -95 -48 -95 -50 0 -70 75 -28 104 34 24 63 20 76 -9z"/>
<path d="M5010 6061 c-56 -12 -77 -28 -100 -77 -51 -104 -29 -200 56 -250 38
-22 54 -26 103 -22 71 5 111 31 140 93 55 117 -7 245 -124 259 -22 2 -56 1
-75 -3z m90 -121 c11 -11 20 -28 20 -38 0 -28 -29 -62 -54 -62 -28 0 -66 35
-66 60 0 26 34 60 60 60 11 0 29 -9 40 -20z"/>
<path d="M3462 5114 c-7 -8 -8 -14 -3 -14 10 0 25 19 20 25 -2 1 -10 -3 -17
-11z"/>
<path d="M4023 5065 c1 -19 4 -35 7 -35 10 0 11 58 1 64 -5 3 -9 -10 -8 -29z"/>
<path d="M2725 5050 c-4 -6 -11 -7 -17 -4 -6 4 -8 2 -5 -4 4 -5 16 -8 27 -5
11 3 17 9 14 14 -7 12 -11 11 -19 -1z"/>
<path d="M2824 5049 c-4 -6 -19 -9 -38 -5 -22 4 -27 3 -16 -4 22 -14 56 -12
70 5 8 9 9 15 2 15 -6 0 -14 -5 -18 -11z"/>
<path d="M2922 5051 c-11 -7 -11 -9 1 -14 9 -3 18 1 21 9 6 16 -2 18 -22 5z"/>
<path d="M2976 5045 c-18 -14 -15 -35 6 -35 6 0 8 3 5 7 -4 3 0 15 10 25 19
21 6 24 -21 3z"/>
<path d="M3027 5030 c-8 -11 -17 -17 -20 -13 -4 3 -7 2 -7 -4 0 -5 15 -9 34
-9 20 1 32 5 29 12 -2 6 3 14 12 18 9 3 13 2 10 -4 -3 -6 -1 -10 4 -10 6 0 11
7 11 15 0 23 -56 19 -73 -5z"/>
<path d="M2735 5020 c-3 -5 -2 -10 4 -10 5 0 13 5 16 10 3 6 2 10 -4 10 -5 0
-13 -4 -16 -10z"/>
<path d="M2766 5004 c-5 -13 -2 -15 14 -11 11 3 27 -1 35 -10 8 -8 15 -10 15
-4 0 14 27 14 32 1 2 -6 12 -3 23 7 11 10 28 17 38 15 9 -2 17 2 17 8 0 8 -9
10 -27 6 -58 -14 -115 -18 -108 -7 3 7 -2 11 -13 11 -11 0 -23 -7 -26 -16z"/>
<path d="M3843 5002 c10 -10 14 -22 10 -25 -3 -4 -1 -7 5 -7 20 0 21 16 1 33
-26 23 -36 22 -16 -1z"/>
<path d="M3806 4992 c-3 -6 -1 -14 5 -17 15 -10 25 3 12 16 -7 7 -13 7 -17 1z"/>
<path d="M3110 4965 c0 -8 4 -15 10 -15 5 0 7 7 4 15 -4 8 -8 15 -10 15 -2 0
-4 -7 -4 -15z"/>
<path d="M3899 4963 c-13 -16 -12 -17 4 -4 9 7 17 15 17 17 0 8 -8 3 -21 -13z"/>
<path d="M2500 4930 c0 -5 7 -10 17 -10 15 0 15 -1 0 -18 -22 -24 -21 -32 3
-32 10 0 23 8 28 17 8 13 4 21 -13 35 -26 20 -35 22 -35 8z m40 -40 c0 -5 -4
-10 -10 -10 -5 0 -10 5 -10 10 0 6 5 10 10 10 6 0 10 -4 10 -10z"/>
<path d="M2575 4890 c-4 -6 5 -10 19 -10 14 0 26 5 26 10 0 6 -9 10 -19 10
-11 0 -23 -4 -26 -10z"/>
<path d="M2553 4863 c4 -3 0 -17 -9 -31 -8 -13 -13 -26 -10 -30 3 -3 6 0 6 6
0 7 6 12 13 12 7 0 14 11 15 25 1 14 -3 25 -10 25 -6 0 -8 -3 -5 -7z"/>
<path d="M4115 4830 c3 -5 8 -10 11 -10 2 0 4 5 4 10 0 6 -5 10 -11 10 -5 0
-7 -4 -4 -10z"/>
<path d="M2565 4790 c3 -5 8 -10 11 -10 2 0 4 5 4 10 0 6 -5 10 -11 10 -5 0
-7 -4 -4 -10z"/>
<path d="M5190 4460 c-13 -8 -12 -10 3 -10 9 0 17 5 17 10 0 12 -1 12 -20 0z"/>
<path d="M5214 4439 c-5 -8 -3 -9 6 -4 7 4 16 2 22 -6 8 -12 9 -12 6 0 -6 20
-24 25 -34 10z"/>
<path d="M5407 4354 c-7 -7 2 -34 12 -34 4 0 7 9 7 20 0 20 -7 25 -19 14z"/>
<path d="M5453 4334 c-3 -8 -3 -18 1 -21 3 -4 6 -1 6 5 0 7 14 12 30 12 40 0
39 17 -1 18 -18 0 -32 -5 -36 -14z"/>
<path d="M5415 4280 c3 -5 8 -10 11 -10 2 0 4 5 4 10 0 6 -5 10 -11 10 -5 0
-7 -4 -4 -10z"/>
<path d="M5440 4246 c0 -2 7 -7 16 -10 8 -3 12 -2 9 4 -6 10 -25 14 -25 6z"/>
<path d="M5537 4244 c-12 -13 3 -21 29 -16 19 3 22 7 12 13 -16 10 -32 11 -41
3z"/>
<path d="M5510 4221 c0 -5 7 -12 16 -15 14 -5 15 -4 4 9 -14 17 -20 19 -20 6z"/>
<path d="M5516 4145 c-3 -8 -1 -15 3 -15 5 0 11 7 15 15 3 8 1 15 -3 15 -5 0
-11 -7 -15 -15z"/>
<path d="M5640 4099 c0 -5 5 -7 10 -4 6 3 10 8 10 11 0 2 -4 4 -10 4 -5 0 -10
-5 -10 -11z"/>
<path d="M5710 4091 c0 -5 -8 -12 -17 -14 -14 -4 -15 -5 -2 -6 8 0 24 6 35 14
17 13 17 14 2 15 -10 0 -18 -4 -18 -9z"/>
<path d="M5745 4060 c3 -5 8 -10 11 -10 2 0 4 5 4 10 0 6 -5 10 -11 10 -5 0
-7 -4 -4 -10z"/>
<path d="M5699 4039 c14 -13 26 -18 32 -12 5 5 -4 14 -23 21 l-31 11 22 -20z"/>
<path d="M5785 3940 c3 -5 8 -10 11 -10 2 0 4 5 4 10 0 6 -5 10 -11 10 -5 0
-7 -4 -4 -10z"/>
<path d="M5810 3910 c0 -5 5 -10 10 -10 6 0 10 5 10 10 0 6 -4 10 -10 10 -5 0
-10 -4 -10 -10z"/>
<path d="M5876 3806 c10 -8 21 -12 24 -10 5 6 -21 24 -34 24 -6 0 -1 -6 10
-14z"/>
<path d="M5983 3721 c16 -10 28 -22 27 -26 -1 -3 2 -10 6 -13 4 -4 4 -1 -1 7
-6 11 -2 13 21 8 23 -4 26 -3 13 6 -9 7 -18 19 -22 27 -4 12 -6 11 -6 -3 -1
-17 -3 -17 -23 -3 -12 9 -27 16 -33 16 -5 0 3 -9 18 -19z"/>
<path d="M5930 3700 c-9 -6 -10 -10 -3 -10 6 0 15 5 18 10 8 12 4 12 -15 0z"/>
<path d="M6084 3685 c-17 -13 -17 -14 -2 -15 9 0 20 5 23 11 11 17 0 20 -21 4z"/>
<path d="M6040 3660 c0 -19 3 -21 12 -12 9 9 9 15 0 24 -9 9 -12 7 -12 -12z"/>
<path d="M6140 3560 c-13 -8 -13 -10 2 -10 9 0 20 5 23 10 8 13 -5 13 -25 0z"/>
<path d="M6205 3560 c-3 -5 -1 -10 4 -10 6 0 11 5 11 10 0 6 -2 10 -4 10 -3 0
-8 -4 -11 -10z"/>
<path d="M6101 3544 c0 -11 3 -14 6 -6 3 7 2 16 -1 19 -3 4 -6 -2 -5 -13z"/>
<path d="M6160 3535 c-8 -9 -8 -15 -2 -15 12 0 26 19 19 26 -2 2 -10 -2 -17
-11z"/>
<path d="M6197 3534 c-12 -13 -7 -20 13 -20 11 0 19 5 17 10 -4 13 -21 18 -30
10z"/>
<path d="M6124 3495 c11 -8 22 -12 25 -9 6 6 -19 24 -34 24 -5 -1 -1 -7 9 -15z"/>
<path d="M5126 3344 c-23 -22 -20 -80 4 -104 25 -25 72 -26 93 -2 21 23 22 86
1 106 -8 9 -31 16 -49 16 -18 0 -41 -7 -49 -16z"/>
<path d="M4427 5007 c-19 -24 -22 -37 -7 -37 6 0 10 4 10 9 0 5 7 16 15 25 8
8 12 17 7 20 -4 2 -15 -5 -25 -17z"/>
<path d="M4394 4961 c17 -18 16 -19 -13 -26 -17 -4 -29 -11 -26 -16 4 -5 18
-3 33 5 15 7 32 11 38 9 6 -2 11 4 11 12 0 9 -6 14 -14 11 -8 -3 -16 1 -19 9
-4 8 -11 15 -17 15 -5 0 -2 -9 7 -19z"/>
<path d="M4406 4911 c-3 -5 0 -11 8 -14 15 -6 26 1 26 15 0 11 -27 10 -34 -1z"/>
<path d="M2152 4896 c7 -8 17 -12 22 -9 4 3 2 9 -5 14 -22 13 -31 11 -17 -5z"/>
<path d="M2200 4894 c0 -6 7 -19 15 -30 8 -10 14 -14 14 -9 0 6 -6 19 -14 29
-8 11 -15 15 -15 10z"/>
<path d="M2306 4885 c4 -8 10 -12 15 -9 11 6 2 24 -11 24 -5 0 -7 -7 -4 -15z"/>
<path d="M1726 4517 c3 -10 9 -15 12 -12 3 3 0 11 -7 18 -10 9 -11 8 -5 -6z"/>
<path d="M1480 4478 c0 -2 9 -11 20 -21 11 -9 20 -13 20 -7 0 5 -9 14 -20 20
-11 6 -20 9 -20 8z"/>
<path d="M1245 4320 c3 -5 8 -10 11 -10 2 0 4 5 4 10 0 6 -5 10 -11 10 -5 0
-7 -4 -4 -10z"/>
<path d="M1295 4320 c-18 -8 -17 -9 8 -9 15 -1 27 4 27 9 0 12 -8 12 -35 0z"/>
<path d="M1186 4264 c-21 -19 -35 -34 -30 -34 4 0 -5 -13 -21 -30 -23 -24 -26
-32 -15 -45 14 -17 30 -20 30 -5 0 6 -7 10 -16 10 -8 0 -12 5 -9 11 4 6 14 8
22 5 9 -4 11 -2 7 6 -4 6 2 17 12 25 10 8 17 17 14 21 -3 4 9 14 26 22 21 11
29 21 25 32 -5 14 -12 11 -45 -18z"/>
<path d="M1250 4282 c0 -11 3 -12 14 -3 11 9 15 9 19 -1 4 -9 6 -7 6 4 1 11
-6 16 -19 15 -11 -1 -20 -8 -20 -15z"/>
<path d="M1255 4250 c3 -5 8 -10 11 -10 2 0 4 5 4 10 0 6 -5 10 -11 10 -5 0
-7 -4 -4 -10z"/>
<path d="M1216 4232 c-3 -6 -1 -14 5 -17 15 -10 25 3 12 16 -7 7 -13 7 -17 1z"/>
<path d="M1185 4190 c-3 -5 -1 -10 4 -10 6 0 11 5 11 10 0 6 -2 10 -4 10 -3 0
-8 -4 -11 -10z"/>
<path d="M1285 4170 c-3 -5 -1 -10 4 -10 6 0 11 5 11 10 0 6 -2 10 -4 10 -3 0
-8 -4 -11 -10z"/>
<path d="M1051 4137 c-8 -15 -18 -27 -23 -27 -4 0 -8 -4 -8 -10 0 -5 7 -10 16
-10 8 0 13 4 9 9 -3 6 2 14 11 19 9 5 14 17 13 27 -3 15 -6 14 -18 -8z"/>
<path d="M1170 4156 c0 -2 7 -7 16 -10 8 -3 12 -2 9 4 -6 10 -25 14 -25 6z"/>
<path d="M1240 4140 c0 -5 6 -10 14 -10 8 0 18 5 21 10 3 6 -3 10 -14 10 -12
0 -21 -4 -21 -10z"/>
<path d="M1090 4129 c0 -5 5 -7 10 -4 6 3 10 8 10 11 0 2 -4 4 -10 4 -5 0 -10
-5 -10 -11z"/>
<path d="M1070 4099 c0 -5 5 -7 10 -4 6 3 10 8 10 11 0 2 -4 4 -10 4 -5 0 -10
-5 -10 -11z"/>
<path d="M1020 4050 c-9 -6 -10 -10 -3 -10 6 0 15 5 18 10 8 12 4 12 -15 0z"/>
<path d="M1055 4030 c-3 -5 -2 -10 4 -10 5 0 13 5 16 10 3 6 2 10 -4 10 -5 0
-13 -4 -16 -10z"/>
<path d="M946 4018 c6 -9 44 -6 44 3 0 4 -11 6 -24 5 -13 0 -22 -4 -20 -8z"/>
<path d="M1008 4023 c7 -3 16 -2 19 1 4 3 -2 6 -13 5 -11 0 -14 -3 -6 -6z"/>
<path d="M940 3979 c0 -5 5 -7 10 -4 6 3 10 8 10 11 0 2 -4 4 -10 4 -5 0 -10
-5 -10 -11z"/>
<path d="M910 3960 c0 -5 5 -10 10 -10 6 0 10 5 10 10 0 6 -4 10 -10 10 -5 0
-10 -4 -10 -10z"/>
<path d="M1028 3953 c7 -3 16 -2 19 1 4 3 -2 6 -13 5 -11 0 -14 -3 -6 -6z"/>
<path d="M900 3930 c0 -6 7 -10 15 -10 8 0 15 2 15 4 0 2 -7 6 -15 10 -8 3
-15 1 -15 -4z"/>
<path d="M881 3914 c0 -11 3 -14 6 -6 3 7 2 16 -1 19 -3 4 -6 -2 -5 -13z"/>
<path d="M986 3922 c-2 -4 4 -8 14 -8 10 0 16 4 14 8 -3 4 -9 8 -14 8 -5 0
-11 -4 -14 -8z"/>
<path d="M867 3884 c2 -7 11 -10 19 -7 19 7 18 10 -5 16 -13 3 -18 1 -14 -9z"/>
<path d="M755 3860 c-3 -6 3 -10 14 -10 12 0 21 -4 21 -9 0 -9 41 -23 48 -16
2 2 -14 13 -36 24 -25 13 -43 17 -47 11z"/>
<path d="M820 3860 c0 -5 7 -10 16 -10 8 0 12 5 9 10 -3 6 -10 10 -16 10 -5 0
-9 -4 -9 -10z"/>
<path d="M878 3843 c-10 -2 -18 -8 -18 -13 0 -4 9 -6 20 -3 11 3 20 9 20 14 0
5 -1 8 -2 8 -2 -1 -11 -3 -20 -6z"/>
<path d="M745 3829 c-4 -6 -5 -12 -2 -15 2 -3 7 2 10 11 7 17 1 20 -8 4z"/>
<path d="M666 3754 c-5 -14 -4 -15 9 -4 17 14 19 20 6 20 -5 0 -12 -7 -15 -16z"/>
<path d="M716 3744 c-9 -24 -2 -26 12 -4 7 11 8 20 3 20 -5 0 -12 -7 -15 -16z"/>
<path d="M738 3723 c6 -2 10 -8 7 -13 -3 -4 5 -6 17 -2 21 5 21 6 2 13 -10 4
-23 8 -29 8 -5 -1 -4 -3 3 -6z"/>
<path d="M730 3679 c0 -5 5 -7 10 -4 6 3 10 8 10 11 0 2 -4 4 -10 4 -5 0 -10
-5 -10 -11z"/>
<path d="M600 3645 c-11 -13 -10 -14 4 -9 9 3 16 10 16 15 0 13 -6 11 -20 -6z"/>
<path d="M638 3653 c7 -3 16 -2 19 1 4 3 -2 6 -13 5 -11 0 -14 -3 -6 -6z"/>
<path d="M618 3613 c7 -3 16 -2 19 1 4 3 -2 6 -13 5 -11 0 -14 -3 -6 -6z"/>
<path d="M652 3598 c-15 -15 -16 -38 -1 -38 5 0 7 5 4 10 -4 6 -1 17 5 25 15
18 9 20 -8 3z"/>
<path d="M585 3590 c-3 -5 1 -10 10 -10 9 0 13 5 10 10 -3 6 -8 10 -10 10 -2
0 -7 -4 -10 -10z"/>
<path d="M555 3570 c3 -5 8 -10 11 -10 2 0 4 5 4 10 0 6 -5 10 -11 10 -5 0 -7
-4 -4 -10z"/>
<path d="M484 3538 c-5 -7 -3 -8 5 -4 7 5 18 0 26 -10 13 -18 14 -18 8 4 -6
24 -27 30 -39 10z"/>
<path d="M535 3479 c-4 -6 -5 -12 -2 -15 2 -3 7 2 10 11 7 17 1 20 -8 4z"/>
<path d="M680 3460 c0 -5 5 -10 11 -10 5 0 7 5 4 10 -3 6 -8 10 -11 10 -2 0
-4 -4 -4 -10z"/>
<path d="M1487 3352 c-25 -28 -22 -87 5 -106 33 -23 95 -21 108 3 16 31 12 86
-8 104 -25 23 -85 22 -105 -1z"/>
<path d="M2949 4013 c-13 -16 -12 -17 4 -4 9 7 17 15 17 17 0 8 -8 3 -21 -13z"/>
<path d="M3002 3985 c1 -14 6 -25 10 -25 4 0 8 11 8 25 0 14 -4 25 -10 25 -5
0 -9 -11 -8 -25z"/>
<path d="M2970 3990 c0 -5 5 -10 11 -10 5 0 7 5 4 10 -3 6 -8 10 -11 10 -2 0
-4 -4 -4 -10z"/>
<path d="M2918 3963 c6 -2 10 -9 6 -14 -8 -14 6 -10 22 6 14 13 12 15 -13 14
-15 0 -22 -3 -15 -6z"/>
<path d="M970 1869 c-163 -12 -285 -26 -238 -28 53 -2 65 -9 90 -52 30 -54 62
-61 213 -48 140 12 186 21 220 43 34 22 61 64 48 77 -14 14 -190 19 -333 8z"/>
<path d="M1925 1856 c-71 -31 -116 -102 -116 -182 0 -82 34 -134 113 -173 73
-37 88 -38 146 -10 30 15 55 38 80 76 31 47 36 63 36 108 -2 115 -77 195 -180
195 -27 -1 -62 -7 -79 -14z m86 -186 l24 -20 -30 2 c-19 2 -31 9 -33 21 -5 23
10 22 39 -3z"/>
<path d="M558 1843 c6 -2 18 -2 25 0 6 3 1 5 -13 5 -14 0 -19 -2 -12 -5z"/>
<path d="M517 1536 c-4 -10 -5 -21 -2 -24 9 -9 17 6 13 25 -3 17 -4 17 -11 -1z"/>
<path d="M2108 1453 c7 -3 16 -2 19 1 4 3 -2 6 -13 5 -11 0 -14 -3 -6 -6z"/>
<path d="M5225 1694 c-39 -14 -39 -14 -5 -8 19 4 43 7 52 7 9 1 14 5 12 9 -6
10 -9 9 -59 -8z"/>
<path d="M5133 1669 c-18 -5 -33 -11 -33 -13 0 -4 50 -2 73 3 4 0 7 6 7 11 0
12 -4 11 -47 -1z"/>
<path d="M5068 1643 c7 -3 16 -2 19 1 4 3 -2 6 -13 5 -11 0 -14 -3 -6 -6z"/>
<path d="M4123 1373 c9 -2 23 -2 30 0 6 3 -1 5 -18 5 -16 0 -22 -2 -12 -5z"/>
<path d="M3858 803 c6 -2 10 -9 7 -14 -4 -5 1 -6 9 -3 20 8 11 24 -12 23 -11
0 -12 -2 -4 -6z"/>
<path d="M759 6503 c-13 -16 -12 -17 4 -4 16 13 21 21 13 21 -2 0 -10 -8 -17
-17z"/>
<path d="M487 6375 c3 -8 9 -12 14 -9 12 7 11 11 -5 17 -10 4 -13 1 -9 -8z"/>
<path d="M6695 6357 c-4 -10 -5 -21 -1 -24 10 -10 18 4 13 24 -4 17 -4 17 -12
0z"/>
<path d="M515 6350 c-3 -5 -1 -10 4 -10 6 0 11 5 11 10 0 6 -2 10 -4 10 -3 0
-8 -4 -11 -10z"/>
<path d="M6637 6229 c7 -7 15 -10 18 -7 3 3 -2 9 -12 12 -14 6 -15 5 -6 -5z"/>
<path d="M256 6058 c3 -5 10 -6 15 -3 13 9 11 12 -6 12 -8 0 -12 -4 -9 -9z"/>
<path d="M80 5791 c0 -6 4 -13 10 -16 6 -3 7 1 4 9 -7 18 -14 21 -14 7z"/>
<path d="M47 5663 c-4 -3 -7 -11 -7 -17 0 -6 5 -5 12 2 6 6 9 14 7 17 -3 3 -9
2 -12 -2z"/>
<path d="M62 5628 c-5 -7 -17 -33 -25 -58 -13 -35 -16 -39 -17 -20 -1 14 -5
34 -9 44 -4 11 -8 -52 -8 -140 -1 -87 1 -148 4 -134 3 22 51 238 57 265 2 6 6
18 11 28 9 22 1 32 -13 15z"/>
<path d="M20 5620 c0 -5 5 -10 10 -10 6 0 10 5 10 10 0 6 -4 10 -10 10 -5 0
-10 -4 -10 -10z"/>
<path d="M1 758 l-1 -758 678 0 677 1 -110 28 c-311 80 -520 203 -760 445
-250 253 -402 565 -469 961 -12 71 -14 -6 -15 -677z"/>
<path d="M6701 1474 c0 -11 3 -14 6 -6 3 7 2 16 -1 19 -3 4 -6 -2 -5 -13z"/>
<path d="M6696 1405 c-4 -25 -4 -50 0 -57 4 -6 3 -8 -3 -5 -7 4 -13 -12 -18
-41 -10 -72 -70 -245 -124 -357 -126 -264 -340 -515 -571 -671 -188 -127 -293
-176 -510 -239 l-115 -34 539 -1 c501 0 540 1 553 18 14 16 14 16 9 0 -5 -17
5 -18 124 -18 l130 0 0 165 c0 91 -4 165 -8 165 -5 0 -21 -17 -35 -37 -40 -56
-33 -20 8 40 l35 52 0 427 c0 279 -3 428 -10 428 -5 0 -10 5 -10 11 0 5 4 8 9
5 5 -4 10 36 10 94 1 55 -1 100 -3 100 -2 0 -7 -20 -10 -45z m-116 -1225 c-6
-11 -12 -20 -14 -20 -2 0 -2 9 1 20 3 11 9 20 15 20 5 0 4 -9 -2 -20z m-30
-34 c0 -3 -4 -8 -10 -11 -5 -3 -10 -1 -10 4 0 6 5 11 10 11 6 0 10 -2 10 -4z
m-40 -60 c0 -8 -7 -16 -15 -20 -13 -4 -14 -2 -5 14 13 23 20 26 20 6z"/>
</g>
</svg>
